<?xml version="1.0" encoding="UTF-8" standalone="no"?>
<svg
   width="14"
   height="14"
   viewBox="0 0 14 14"
   version="1.1"
   id="svg15"
   sodipodi:docname="epic.svg"
   inkscape:version="1.1 (ce6663b3b7, 2021-05-25)"
   xmlns:inkscape="http://www.inkscape.org/namespaces/inkscape"
   xmlns:sodipodi="http://sodipodi.sourceforge.net/DTD/sodipodi-0.dtd"
   xmlns="http://www.w3.org/2000/svg"
   xmlns:svg="http://www.w3.org/2000/svg"
   xmlns:rdf="http://www.w3.org/1999/02/22-rdf-syntax-ns#"
   xmlns:cc="http://creativecommons.org/ns#"
   xmlns:dc="http://purl.org/dc/elements/1.1/"
   xmlns:sketch="http://www.bohemiancoding.com/sketch/ns">
  <sodipodi:namedview
     id="namedview17"
     pagecolor="#ffffff"
     bordercolor="#666666"
     borderopacity="1.0"
     inkscape:pageshadow="2"
     inkscape:pageopacity="0.0"
     inkscape:pagecheckerboard="0"
     showgrid="false"
     fit-margin-top="0"
     fit-margin-left="0"
     fit-margin-right="0"
     fit-margin-bottom="0"
     inkscape:zoom="54.5625"
     inkscape:cx="0.68728522"
     inkscape:cy="6.9919817"
     inkscape:window-width="2560"
     inkscape:window-height="1376"
     inkscape:window-x="0"
     inkscape:window-y="27"
     inkscape:window-maximized="1"
     inkscape:current-layer="svg15" />
  <!-- Generator: Sketch 3.5.2 (25235) - http://www.bohemiancoding.com/sketch -->
  <title
     id="title2">epic</title>
  <desc
     id="desc4">Created with Sketch.</desc>
  <defs
     id="defs6" />
  <g
     id="g13"
     stroke="none"
     stroke-width="1"
     fill="none"
     fill-rule="evenodd"
     sketch:type="MSPage"
     transform="translate(-1,-1)">
    <g
       id="epic"
       sketch:type="MSArtboardGroup">
      <g
         id="Epic"
         sketch:type="MSLayerGroup"
         transform="translate(1,1)">
        <rect
           id="Rectangle-36"
           fill="#904ee2"
           sketch:type="MSShapeGroup"
           x="0"
           y="0"
           width="14"
           height="14"
           rx="2" />
        <g
           id="Page-1"
           transform="translate(4,3)"
           fill="#ffffff"
           sketch:type="MSShapeGroup">
          <path
             d="m 5.9233,3.7566 -0.002,-0.004 c 0.046,-0.075 0.079,-0.158 0.079,-0.253 0,-0.276 -0.224,-0.5 -0.5,-0.5 h -2.5 v -2.5 c 0,-0.276 -0.224,-0.5 -0.5,-0.5 -0.172,0 -0.315,0.092 -0.405,0.223 -0.028,0.041 -0.051,0.083 -0.066,0.13 l -1.948,3.884 0.002,0.003 c -0.048,0.077 -0.083,0.163 -0.083,0.26 0,0.277 0.224,0.5 0.5,0.5 h 2.5 v 2.5 c 0,0.277 0.224,0.5 0.5,0.5 0.179,0 0.329,-0.099 0.418,-0.241 l 0.003,10e-4 0.013,-0.026 c 0.011,-0.021 0.023,-0.04 0.031,-0.062 z"
             id="Fill-1" />
        </g>
      </g>
    </g>
  </g>
  <metadata
     id="metadata19">
    <rdf:RDF>
      <cc:Work
         rdf:about="">
        <dc:title>epic</dc:title>
      </cc:Work>
    </rdf:RDF>
  </metadata>
</svg>
