<?xml version="1.0" encoding="UTF-8" standalone="no"?>
<!-- Generator: Adobe Illustrator 25.2.3, SVG Export Plug-In . SVG Version: 6.00 Build 0)  -->

<svg
   xmlns:dc="http://purl.org/dc/elements/1.1/"
   xmlns:cc="http://creativecommons.org/ns#"
   xmlns:rdf="http://www.w3.org/1999/02/22-rdf-syntax-ns#"
   xmlns:svg="http://www.w3.org/2000/svg"
   xmlns="http://www.w3.org/2000/svg"
   xmlns:sodipodi="http://sodipodi.sourceforge.net/DTD/sodipodi-0.dtd"
   xmlns:inkscape="http://www.inkscape.org/namespaces/inkscape"
   version="1.1"
   id="Lager_1"
   x="0px"
   y="0px"
   viewBox="0 0 631.43994 453.35999"
   xml:space="preserve"
   sodipodi:docname="branches.svg"
   width="631.43994"
   height="453.35999"
   inkscape:version="0.92.5 (2060ec1f9f, 2020-04-08)"><metadata
   id="metadata151"><rdf:RDF><cc:Work
       rdf:about=""><dc:format>image/svg+xml</dc:format><dc:type
         rdf:resource="http://purl.org/dc/dcmitype/StillImage" /><dc:title></dc:title></cc:Work></rdf:RDF></metadata><defs
   id="defs149" /><sodipodi:namedview
   pagecolor="#ffffff"
   bordercolor="#666666"
   borderopacity="1"
   objecttolerance="10"
   gridtolerance="10"
   guidetolerance="10"
   inkscape:pageopacity="0"
   inkscape:pageshadow="2"
   inkscape:window-width="1920"
   inkscape:window-height="1016"
   id="namedview147"
   showgrid="false"
   inkscape:zoom="0.41114983"
   inkscape:cx="300.77674"
   inkscape:cy="226.22999"
   inkscape:window-x="0"
   inkscape:window-y="27"
   inkscape:window-maximized="1"
   inkscape:current-layer="Lager_1" />
<style
   type="text/css"
   id="style2">
	.st0{fill:none;stroke:#404040;stroke-width:4;stroke-miterlimit:10;}
	.st1{fill:#4ED1A1;stroke:#404040;stroke-width:4;stroke-miterlimit:10;}
	.st2{fill:#B18BE8;stroke:#404040;stroke-width:4;stroke-miterlimit:10;}
	.st3{fill:none;stroke:#CCCCCC;stroke-width:4;stroke-linecap:round;stroke-linejoin:round;stroke-dasharray:0,14.3051;}
	.st4{fill:none;stroke:#CCCCCC;stroke-width:4;stroke-linecap:round;stroke-linejoin:round;}
	.st5{fill:none;stroke:#CCCCCC;stroke-width:4;stroke-linecap:round;stroke-linejoin:round;stroke-dasharray:0,14.1689;}
	.st6{fill:none;stroke:#CCCCCC;stroke-width:4;stroke-linecap:round;stroke-linejoin:round;stroke-dasharray:0,13.9788;}
	.st7{fill:none;stroke:#CCCCCC;stroke-width:4;stroke-linecap:round;stroke-linejoin:round;stroke-dasharray:0,14.7877;}
	.st8{fill:none;stroke:#CCCCCC;stroke-width:4;stroke-linecap:round;stroke-linejoin:round;stroke-dasharray:0,14.9632;}
	.st9{fill:#B3E3FF;stroke:#404040;stroke-width:4;stroke-miterlimit:10;}
	.st10{fill:#B3E3FF;stroke:#404040;stroke-width:4;stroke-linecap:round;stroke-linejoin:round;stroke-miterlimit:10;}
	.st11{fill:#404040;}
	.st12{fill:none;stroke:#404040;stroke-width:4;stroke-linecap:round;stroke-linejoin:round;stroke-miterlimit:10;}
	.st13{fill:none;stroke:#CCCCCC;stroke-width:4;stroke-linecap:round;stroke-linejoin:round;stroke-dasharray:0,12.543;}
	.st14{fill:none;stroke:#CCCCCC;stroke-width:4;stroke-linecap:round;stroke-linejoin:round;stroke-dasharray:0,13.6844;}
	.st15{fill:none;stroke:#CCCCCC;stroke-width:4;stroke-linecap:round;stroke-linejoin:round;stroke-dasharray:0,13.7717;}
	.st16{fill:none;stroke:#CCCCCC;stroke-width:4;stroke-linecap:round;stroke-linejoin:round;stroke-dasharray:0,13.6492;}
	.st17{fill:none;stroke:#CCCCCC;stroke-width:4;stroke-linecap:round;stroke-linejoin:round;stroke-dasharray:0,13.907;}
	.st18{fill:#4CD3D6;stroke:#404040;stroke-width:4;stroke-linecap:round;stroke-linejoin:round;stroke-miterlimit:10;}
	.st19{fill:#B18BE8;stroke:#404040;stroke-width:4;stroke-linecap:round;stroke-linejoin:round;stroke-miterlimit:10;}
	.st20{fill:#FC8363;stroke:#404040;stroke-width:4;stroke-linecap:round;stroke-linejoin:round;stroke-miterlimit:10;}
	.st21{fill:#4ED1A1;stroke:#404040;stroke-width:4;stroke-linecap:round;stroke-linejoin:round;stroke-miterlimit:10;}
	.st22{fill:#4CD3D6;stroke:#404040;stroke-width:4;stroke-linejoin:round;stroke-miterlimit:10;}
	.st23{fill:#414141;}
</style>
<path
   class="st0"
   d="m 334.95996,365.36 c 0,-13.6 11.04,-24.64 24.64,-24.64"
   id="path4"
   inkscape:connector-curvature="0"
   style="fill:none;stroke:#404040;stroke-width:3.20000005;stroke-miterlimit:10" />
<path
   class="st0"
   d="m 198.71996,365.36 c 0,-13.6 -11.04,-24.64 -24.64,-24.64 m -47.04,98.4 h 171.12"
   id="path6"
   inkscape:connector-curvature="0"
   style="fill:none;stroke:#404040;stroke-width:3.20000005;stroke-miterlimit:10" />
<circle
   class="st1"
   cx="248.07996"
   cy="439.12"
   r="12.64"
   id="circle8"
   style="fill:#4ed1a1;stroke:#404040;stroke-width:3.20000005;stroke-miterlimit:10" />
<circle
   class="st1"
   cx="285.59998"
   cy="439.12"
   r="12.64"
   id="circle10"
   style="fill:#4ed1a1;stroke:#404040;stroke-width:3.20000005;stroke-miterlimit:10" />
<circle
   class="st1"
   cx="189.43997"
   cy="439.12"
   r="12.64"
   id="circle12"
   style="fill:#4ed1a1;stroke:#404040;stroke-width:3.20000005;stroke-miterlimit:10" />
<path
   class="st0"
   d="m 616.39996,340.72 h -477.04"
   id="path14"
   inkscape:connector-curvature="0"
   style="fill:none;stroke:#404040;stroke-width:3.20000005;stroke-miterlimit:10" />
<circle
   class="st2"
   cx="383.59998"
   cy="340.72"
   r="12.64"
   id="circle16"
   style="fill:#b18be8;stroke:#404040;stroke-width:3.20000005;stroke-miterlimit:10" />
<circle
   class="st2"
   cx="248.07996"
   cy="340.72"
   r="12.64"
   id="circle18"
   style="fill:#b18be8;stroke:#404040;stroke-width:3.20000005;stroke-miterlimit:10" />
<circle
   class="st2"
   cx="616.39996"
   cy="340.72"
   r="12.64"
   id="circle20"
   style="fill:#b18be8;stroke:#404040;stroke-width:3.20000005;stroke-miterlimit:10" />
<path
   class="st0"
   d="m 198.71996,365.36 c 0,13.6 11.04,24.64 24.64,24.64 h 86.32 M 63.359958,217.44 c 0,13.6 11.04,24.64 24.64,24.64 h 13.840002"
   id="path22"
   inkscape:connector-curvature="0"
   style="fill:none;stroke:#404040;stroke-width:3.20000005;stroke-miterlimit:10" />
<circle
   class="st1"
   cx="248.07996"
   cy="389.92001"
   r="12.64"
   id="circle24"
   style="fill:#4ed1a1;stroke:#404040;stroke-width:3.20000005;stroke-miterlimit:10" />
<circle
   class="st1"
   cx="285.59998"
   cy="389.92001"
   r="12.64"
   id="circle26"
   style="fill:#4ed1a1;stroke:#404040;stroke-width:3.20000005;stroke-miterlimit:10" />
<path
   class="st0"
   d="m 309.67996,389.92 h 0.72 c 13.6,0 24.64,-11.04 24.64,-24.64"
   id="path28"
   inkscape:connector-curvature="0"
   style="fill:none;stroke:#404040;stroke-width:3.20000005;stroke-miterlimit:10" />
<path
   class="st3"
   d="M 41.199958,242.32 H 12.639962"
   id="path30"
   inkscape:connector-curvature="0"
   style="fill:none;stroke:#cccccc;stroke-width:3.20000005;stroke-linecap:round;stroke-linejoin:round;stroke-dasharray:0, 11.44408" />
<path
   class="st4"
   d="M 616.47996,242.32"
   id="path32"
   inkscape:connector-curvature="0"
   style="fill:none;stroke:#cccccc;stroke-width:3.20000005;stroke-linecap:round;stroke-linejoin:round" />
<path
   class="st5"
   d="m 605.11996,242.32 h -413.76"
   id="path34"
   inkscape:connector-curvature="0"
   style="fill:none;stroke:#cccccc;stroke-width:3.20000005;stroke-linecap:round;stroke-linejoin:round;stroke-dasharray:0, 11.33512" />
<path
   class="st4"
   d="M 431.83996,291.52"
   id="path36"
   inkscape:connector-curvature="0"
   style="fill:none;stroke:#cccccc;stroke-width:3.20000005;stroke-linecap:round;stroke-linejoin:round" />
<path
   class="st6"
   d="M 420.63996,291.52 H 12.479962"
   id="path38"
   inkscape:connector-curvature="0"
   style="fill:none;stroke:#cccccc;stroke-width:3.20000005;stroke-linecap:round;stroke-linejoin:round;stroke-dasharray:0, 11.18304" />
<path
   class="st4"
   d="M 616.47996,291.52"
   id="path40"
   inkscape:connector-curvature="0"
   style="fill:none;stroke:#cccccc;stroke-width:3.20000005;stroke-linecap:round;stroke-linejoin:round" />
<path
   class="st7"
   d="m 604.63996,291.52 h -41.44"
   id="path42"
   inkscape:connector-curvature="0"
   style="fill:none;stroke:#cccccc;stroke-width:3.20000005;stroke-linecap:round;stroke-linejoin:round;stroke-dasharray:0, 11.83016" />
<path
   class="st4"
   d="M 616.39996,193.12"
   id="path44"
   inkscape:connector-curvature="0"
   style="fill:none;stroke:#cccccc;stroke-width:3.20000005;stroke-linecap:round;stroke-linejoin:round" />
<path
   class="st8"
   d="m 604.47996,193.12 h -65.84"
   id="path46"
   inkscape:connector-curvature="0"
   style="fill:none;stroke:#cccccc;stroke-width:3.20000005;stroke-linecap:round;stroke-linejoin:round;stroke-dasharray:0, 11.97056" />
<path
   class="st0"
   d="m 63.359958,217.76 c 0,-13.6 -11.04,-24.64 -24.64,-24.64 m 126.080002,24.32 c 0,13.6 -11.04,24.64 -24.64,24.64 h -38.4 m 63.04,-24.32 c 0,-13.6 11.04,-24.64 24.64,-24.64 m 24.56,147.6 c -13.6,0 -24.64,-11.04 -24.64,-24.64 v -49.44 m 0,0 c 0,-13.6 -11.04,-24.64 -24.64,-24.64"
   id="path48"
   inkscape:connector-curvature="0"
   style="fill:none;stroke:#404040;stroke-width:3.20000005;stroke-miterlimit:10" />
<circle
   class="st1"
   cx="114.39996"
   cy="439.12"
   r="12.64"
   id="circle50"
   style="fill:#4ed1a1;stroke:#404040;stroke-width:3.20000005;stroke-miterlimit:10" />
<path
   class="st0"
   d="M 511.43996,193.12 H 26.799958"
   id="path52"
   inkscape:connector-curvature="0"
   style="fill:none;stroke:#404040;stroke-width:3.20000005;stroke-miterlimit:10" />
<circle
   transform="rotate(-0.86783891)"
   class="st9"
   cx="11.313545"
   cy="193.31642"
   id="ellipse54"
   r="12.640186"
   style="fill:#b3e3ff;stroke:#404040;stroke-width:3.20004702;stroke-miterlimit:10" />
<circle
   class="st9"
   cx="248.07996"
   cy="193.12001"
   r="12.64"
   id="circle56"
   style="fill:#b3e3ff;stroke:#404040;stroke-width:3.20000005;stroke-miterlimit:10" />
<circle
   class="st9"
   cx="511.43997"
   cy="193.12001"
   r="12.64"
   id="circle58"
   style="fill:#b3e3ff;stroke:#404040;stroke-width:3.20000005;stroke-miterlimit:10" />
<path
   class="st10"
   d="m 34.639958,108.72 h 34 v 30 h -34 z"
   id="path60"
   inkscape:connector-curvature="0"
   style="fill:#b3e3ff;stroke:#404040;stroke-width:3.20000005;stroke-linecap:round;stroke-linejoin:round;stroke-miterlimit:10" />
<path
   class="st11"
   d="m 45.519958,127.36 h -0.96 l -2,-5.04 h 1.12 l 1.44,3.84 1.44,-3.84 h 1.04 z m 3.76,-5.84 c 0.4,-0.64 1.12,-1.12 2.08,-1.12 0.96,0 1.6,0.4 2.08,1.12 0.48,0.64 0.64,1.52 0.64,2.48 0,0.96 -0.16,1.76 -0.64,2.48 -0.4,0.64 -1.12,1.12 -2.08,1.12 -0.96,0 -1.6,-0.4 -2.08,-1.12 -0.48,-0.64 -0.64,-1.52 -0.64,-2.48 0,-0.96 0.16,-1.84 0.64,-2.48 z m 0.96,4.64 c 0.24,0.24 0.56,0.4 1.04,0.4 0.48,0 0.8,-0.16 1.04,-0.4 0.4,-0.4 0.56,-1.12 0.56,-2.16 0,-1.04 -0.16,-1.76 -0.56,-2.16 -0.24,-0.24 -0.56,-0.4 -1.04,-0.4 -0.48,0 -0.8,0.16 -1.04,0.4 -0.4,0.4 -0.56,1.12 -0.56,2.16 0,1.04 0.16,1.68 0.56,2.16 z m 5.84,-0.24 c 0.4,0 0.72,0.32 0.72,0.72 0,0.4 -0.32,0.72 -0.72,0.72 -0.4,0 -0.72,-0.32 -0.72,-0.72 0,-0.4 0.32,-0.72 0.72,-0.72 z m 3.12,1.44 v -4.72 h -1.6 v -0.72 c 0.96,0 1.6,-0.56 1.76,-1.28 h 0.88 v 6.72 c 0,0 -1.04,0 -1.04,0 z"
   id="path62"
   inkscape:connector-curvature="0"
   style="fill:#404040;stroke-width:0.80000001" />
<path
   class="st12"
   d="m 51.679958,166 v -14.08 m 6.56,8.88 -6.56,6.56 -6.48,-6.56"
   id="path64"
   inkscape:connector-curvature="0"
   style="fill:none;stroke:#404040;stroke-width:3.20000005;stroke-linecap:round;stroke-linejoin:round;stroke-miterlimit:10" />
<path
   class="st10"
   d="m 231.11996,108.72 h 34 v 30 h -34 z"
   id="path66"
   inkscape:connector-curvature="0"
   style="fill:#b3e3ff;stroke:#404040;stroke-width:3.20000005;stroke-linecap:round;stroke-linejoin:round;stroke-miterlimit:10" />
<path
   class="st11"
   d="m 240.63996,127.36 h -0.96 l -2,-5.04 h 1.12 l 1.44,3.84 1.44,-3.84 h 1.04 z m 3.76,-5.84 c 0.4,-0.64 1.12,-1.12 2.08,-1.12 0.96,0 1.6,0.4 2.08,1.12 0.48,0.64 0.64,1.52 0.64,2.48 0,0.96 -0.16,1.76 -0.64,2.48 -0.4,0.64 -1.12,1.12 -2.08,1.12 -0.96,0 -1.6,-0.4 -2.08,-1.12 -0.48,-0.64 -0.64,-1.52 -0.64,-2.48 0,-0.96 0.16,-1.84 0.64,-2.48 z m 0.96,4.64 c 0.24,0.24 0.56,0.4 1.04,0.4 0.48,0 0.8,-0.16 1.04,-0.4 0.4,-0.4 0.56,-1.12 0.56,-2.16 0,-1.04 -0.16,-1.76 -0.56,-2.16 -0.24,-0.24 -0.56,-0.4 -1.04,-0.4 -0.48,0 -0.8,0.16 -1.04,0.4 -0.4,0.4 -0.56,1.12 -0.56,2.16 0,1.04 0.16,1.68 0.56,2.16 z m 5.84,-0.24 c 0.4,0 0.72,0.32 0.72,0.72 0,0.4 -0.32,0.72 -0.72,0.72 -0.4,0 -0.72,-0.32 -0.72,-0.72 0,-0.4 0.32,-0.72 0.72,-0.72 z m 2.4,-3.04 v -0.24 c 0,-1.12 0.88,-2.16 2.32,-2.16 1.44,0 2.24,0.96 2.24,2.08 0,0.88 -0.48,1.6 -1.28,2.08 l -1.36,0.88 c -0.4,0.24 -0.72,0.56 -0.8,0.96 h 3.44 v 0.96 h -4.72 c 0,-1.12 0.48,-1.92 1.6,-2.72 l 1.12,-0.72 c 0.64,-0.4 0.96,-0.88 0.96,-1.44 0,-0.64 -0.4,-1.2 -1.28,-1.2 -0.88,0 -1.28,0.64 -1.28,1.36 v 0.32 z"
   id="path68"
   inkscape:connector-curvature="0"
   style="fill:#404040;stroke-width:0.80000001" />
<path
   class="st12"
   d="m 248.07996,166 v -14.08 m 6.56,8.88 -6.56,6.56 -6.48,-6.56"
   id="path70"
   inkscape:connector-curvature="0"
   style="fill:none;stroke:#404040;stroke-width:3.20000005;stroke-linecap:round;stroke-linejoin:round;stroke-miterlimit:10" />
<path
   class="st10"
   d="m 494.47996,108.72 h 34 v 30 h -34 z"
   id="path72"
   inkscape:connector-curvature="0"
   style="fill:#b3e3ff;stroke:#404040;stroke-width:3.20000005;stroke-linecap:round;stroke-linejoin:round;stroke-miterlimit:10" />
<path
   class="st11"
   d="m 504.87996,127.36 h -0.96 l -2,-5.04 h 1.12 l 1.44,3.84 1.44,-3.84 h 1.04 z m 4.48,0 v -4.72 h -1.6 v -0.72 c 0.96,0 1.6,-0.56 1.76,-1.28 h 0.88 v 6.72 z m 3.68,-1.44 c 0.4,0 0.72,0.32 0.72,0.72 0,0.4 -0.32,0.72 -0.72,0.72 -0.4,0 -0.72,-0.32 -0.72,-0.72 0,-0.4 0.32,-0.72 0.72,-0.72 z m 2.88,-4.4 c 0.4,-0.64 1.12,-1.12 2.08,-1.12 0.96,0 1.6,0.4 2.08,1.12 0.48,0.64 0.64,1.52 0.64,2.48 0,0.96 -0.16,1.76 -0.64,2.48 -0.4,0.64 -1.12,1.12 -2.08,1.12 -0.96,0 -1.6,-0.4 -2.08,-1.12 -0.48,-0.64 -0.64,-1.52 -0.64,-2.48 0,-0.96 0.24,-1.84 0.64,-2.48 z m 1.04,4.64 c 0.24,0.24 0.56,0.4 1.04,0.4 0.48,0 0.8,-0.16 1.04,-0.4 0.4,-0.4 0.56,-1.12 0.56,-2.16 0,-1.04 -0.16,-1.76 -0.56,-2.16 -0.24,-0.24 -0.56,-0.4 -1.04,-0.4 -0.48,0 -0.8,0.16 -1.04,0.4 -0.4,0.4 -0.56,1.12 -0.56,2.16 0,1.04 0.16,1.68 0.56,2.16 z"
   id="path74"
   inkscape:connector-curvature="0"
   style="fill:#404040;stroke-width:0.80000001" />
<path
   class="st12"
   d="m 511.43996,166 v -14.08 m 6.56,8.88 -6.56,6.56 -6.48,-6.56"
   id="path76"
   inkscape:connector-curvature="0"
   style="fill:none;stroke:#404040;stroke-width:3.20000005;stroke-linecap:round;stroke-linejoin:round;stroke-miterlimit:10" />
<path
   class="st13"
   d="M 47.039958,340.72 H 11.919962"
   id="path78"
   inkscape:connector-curvature="0"
   style="fill:none;stroke:#cccccc;stroke-width:3.20000005;stroke-linecap:round;stroke-linejoin:round;stroke-dasharray:0, 10.0344" />
<path
   class="st4"
   d="M 203.91996,389.92"
   id="path80"
   inkscape:connector-curvature="0"
   style="fill:none;stroke:#cccccc;stroke-width:3.20000005;stroke-linecap:round;stroke-linejoin:round" />
<path
   class="st14"
   d="M 192.95996,389.92 H 12.399962"
   id="path82"
   inkscape:connector-curvature="0"
   style="fill:none;stroke:#cccccc;stroke-width:3.20000005;stroke-linecap:round;stroke-linejoin:round;stroke-dasharray:0, 10.94752" />
<path
   class="st4"
   d="M 616.47996,389.92"
   id="path84"
   inkscape:connector-curvature="0"
   style="fill:none;stroke:#cccccc;stroke-width:3.20000005;stroke-linecap:round;stroke-linejoin:round" />
<path
   class="st15"
   d="m 605.43996,389.92 h -269.92"
   id="path86"
   inkscape:connector-curvature="0"
   style="fill:none;stroke:#cccccc;stroke-width:3.20000005;stroke-linecap:round;stroke-linejoin:round;stroke-dasharray:0, 11.01736" />
<path
   class="st4"
   d="M 94.239958,439.12"
   id="path88"
   inkscape:connector-curvature="0"
   style="fill:none;stroke:#cccccc;stroke-width:3.20000005;stroke-linecap:round;stroke-linejoin:round" />
<path
   class="st16"
   d="M 83.359958,439.12 H 12.319962"
   id="path90"
   inkscape:connector-curvature="0"
   style="fill:none;stroke:#cccccc;stroke-width:3.20000005;stroke-linecap:round;stroke-linejoin:round;stroke-dasharray:0, 10.91936" />
<path
   class="st4"
   d="M 616.47996,439.12"
   id="path92"
   inkscape:connector-curvature="0"
   style="fill:none;stroke:#cccccc;stroke-width:3.20000005;stroke-linecap:round;stroke-linejoin:round" />
<path
   class="st17"
   d="m 605.27996,439.12 h -294.8"
   id="path94"
   inkscape:connector-curvature="0"
   style="fill:none;stroke:#cccccc;stroke-width:3.20000005;stroke-linecap:round;stroke-linejoin:round;stroke-dasharray:0, 11.1256" />
<path
   class="st18"
   d="m 222.23996,1.6 h 76.96 v 40.000002 h -76.96 z"
   id="path96"
   inkscape:connector-curvature="0"
   style="fill:#4cd3d6;stroke:#404040;stroke-width:3.20000005;stroke-linecap:round;stroke-linejoin:round;stroke-miterlimit:10" />
<path
   class="st11"
   d="m 242.47996,22.88 h -1.28 v 3.44 h -1.2 v -8.4 h 3.2 c 1.6,0 2.64,1.12 2.64,2.56 0,1.2 -0.8,2.16 -2.08,2.4 l 2,3.6 h -1.36 z m 0.56,-1.04 c 0.96,0 1.6,-0.56 1.6,-1.44 0,-0.88 -0.64,-1.44 -1.6,-1.44 h -1.76 v 2.88 c 0,0 1.76,0 1.76,0 z m 9.68,2.88 c -0.32,1.04 -1.28,1.84 -2.56,1.84 -1.52,0 -2.88,-1.12 -2.88,-3.12 0,-1.84 1.28,-3.04 2.8,-3.04 1.76,0 2.8,1.2 2.8,3.04 v 0.4 h -4.32 c 0,1.04 0.8,1.76 1.76,1.76 0.96,0 1.44,-0.48 1.6,-1.2 z m -1.12,-1.84 c 0,-0.8 -0.56,-1.44 -1.6,-1.44 -0.96,0 -1.52,0.72 -1.6,1.44 z m 3.2,3.52 v -8.72 h 1.12 v 8.72 z m 8.72,-1.68 c -0.32,1.04 -1.28,1.84 -2.56,1.84 -1.52,0 -2.88,-1.12 -2.88,-3.12 0,-1.84 1.28,-3.04 2.8,-3.04 1.76,0 2.8,1.2 2.8,3.04 v 0.4 h -4.32 c 0,1.04 0.8,1.76 1.76,1.76 0.96,0 1.44,-0.48 1.6,-1.2 z m -1.12,-1.84 c 0,-0.8 -0.56,-1.44 -1.6,-1.44 -0.96,0 -1.52,0.72 -1.6,1.44 z m 4.56,0.24 1.6,-0.24 c 0.32,-0.08 0.48,-0.24 0.48,-0.4 0,-0.56 -0.4,-1.04 -1.28,-1.04 -0.8,0 -1.2,0.48 -1.28,1.2 l -1.12,-0.24 c 0.16,-1.12 1.12,-1.84 2.4,-1.84 1.76,0 2.4,0.96 2.4,2.08 v 2.8 c 0,0.48 0.08,0.8 0.08,0.96 h -1.2 c 0,-0.16 -0.08,-0.4 -0.08,-0.8 -0.24,0.4 -0.8,0.96 -1.84,0.96 -1.2,0 -1.92,-0.8 -1.92,-1.76 0,-0.96 0.8,-1.6 1.76,-1.68 z m 2,0.8 v -0.24 l -1.76,0.24 c -0.48,0.08 -0.8,0.32 -0.8,0.88 0,0.4 0.4,0.8 0.96,0.8 0.88,0 1.6,-0.4 1.6,-1.68 z m 4,0.64 c 0.08,0.64 0.56,1.04 1.36,1.04 0.64,0 0.96,-0.4 0.96,-0.8 0,-0.32 -0.24,-0.64 -0.72,-0.72 l -0.96,-0.24 c -0.88,-0.16 -1.44,-0.8 -1.44,-1.6 0,-0.96 0.96,-1.84 2.08,-1.84 1.6,0 2.08,1.04 2.16,1.52 l -0.96,0.4 c -0.08,-0.32 -0.32,-0.96 -1.2,-0.96 -0.56,0 -0.96,0.4 -0.96,0.8 0,0.32 0.24,0.64 0.64,0.72 l 0.96,0.24 c 1.04,0.24 1.6,0.88 1.6,1.68 0,0.8 -0.72,1.76 -2.08,1.76 -1.6,0 -2.24,-1.04 -2.32,-1.68 z m 10.48,0.16 c -0.32,1.04 -1.28,1.84 -2.56,1.84 -1.52,0 -2.88,-1.12 -2.88,-3.12 0,-1.84 1.28,-3.04 2.8,-3.04 1.76,0 2.8,1.2 2.8,3.04 v 0.4 h -4.32 c 0,1.04 0.8,1.76 1.76,1.76 0.96,0 1.44,-0.48 1.6,-1.2 z m -1.12,-1.84 c 0,-0.8 -0.56,-1.44 -1.6,-1.44 -0.96,0 -1.52,0.72 -1.6,1.44 z"
   id="path98"
   inkscape:connector-curvature="0"
   style="fill:#404040;stroke-width:0.80000001" />
<path
   class="st19"
   d="m 332.47996,1.6 h 76.96 v 40.000002 h -76.96 z"
   id="path100"
   inkscape:connector-curvature="0"
   style="fill:#b18be8;stroke:#404040;stroke-width:3.20000005;stroke-linecap:round;stroke-linejoin:round;stroke-miterlimit:10" />
<path
   class="st11"
   d="m 348.79996,26.4 v -8.48 h 2.96 c 2.16,0 4.08,1.44 4.08,4.24 0,2.8 -1.92,4.24 -4.08,4.24 z m 2.88,-1.04 c 1.6,0 2.88,-1.04 2.88,-3.2 0,-2.16 -1.28,-3.2 -2.88,-3.2 h -1.76 v 6.4 z m 11.2,-0.64 c -0.32,1.04 -1.28,1.84 -2.56,1.84 -1.52,0 -2.88,-1.12 -2.88,-3.12 0,-1.84 1.28,-3.04 2.72,-3.04 1.76,0 2.8,1.2 2.8,3.04 v 0.4 h -4.32 c 0,1.04 0.8,1.76 1.76,1.76 0.96,0 1.44,-0.48 1.6,-1.2 z m -1.12,-1.84 c 0,-0.8 -0.56,-1.44 -1.6,-1.44 -0.96,0 -1.52,0.72 -1.6,1.44 z m 6,3.52 h -1.12 l -2.4,-5.76 h 1.28 l 1.68,4.48 1.68,-4.48 h 1.2 z m 8.56,-1.68 c -0.32,1.04 -1.28,1.84 -2.56,1.84 -1.52,0 -2.88,-1.12 -2.88,-3.12 0,-1.84 1.28,-3.04 2.8,-3.04 1.76,0 2.8,1.2 2.8,3.04 v 0.4 h -4.32 c 0,1.04 0.8,1.76 1.76,1.76 0.96,0 1.44,-0.48 1.6,-1.2 z m -1.12,-1.84 c 0,-0.8 -0.56,-1.44 -1.6,-1.44 -0.96,0 -1.52,0.72 -1.6,1.44 z m 3.2,3.52 v -8.72 h 1.12 v 8.72 z m 9.12,-2.88 c 0,1.76 -1.2,3.04 -2.96,3.04 -1.76,0 -2.96,-1.28 -2.96,-3.04 0,-1.76 1.2,-3.04 2.96,-3.04 1.68,-0.08 2.96,1.28 2.96,3.04 z m -1.2,0 c 0,-1.36 -0.8,-2.08 -1.76,-2.08 -0.96,0 -1.76,0.72 -1.76,2.08 0,1.36 0.8,2.08 1.76,2.08 0.96,0 1.76,-0.8 1.76,-2.08 z m 3.2,5.12 v -8 h 1.12 v 0.88 c 0.32,-0.56 0.96,-1.04 1.92,-1.04 1.76,0 2.64,1.36 2.64,3.04 0,1.68 -0.96,3.04 -2.72,3.04 -0.88,0 -1.6,-0.4 -1.84,-0.96 v 3.04 z m 2.8,-7.12 c -1.04,0 -1.68,0.88 -1.68,2 0,1.2 0.72,2.08 1.68,2.08 1.04,0 1.68,-0.88 1.68,-2.08 0.08,-1.2 -0.56,-2 -1.68,-2 z"
   id="path102"
   inkscape:connector-curvature="0"
   style="fill:#404040;stroke-width:0.80000001" />
<path
   class="st20"
   d="m 112.07996,1.6 h 76.96 v 40.000002 h -76.96 z"
   id="path104"
   inkscape:connector-curvature="0"
   style="fill:#fc8363;stroke:#404040;stroke-width:3.20000005;stroke-linecap:round;stroke-linejoin:round;stroke-miterlimit:10" />
<path
   class="st11"
   d="m 140.15996,26.4 v -3.76 h -4.32 v 3.76 h -1.2 v -8.48 h 1.2 v 3.6 h 4.32 v -3.6 h 1.2 v 8.48 z m 9.2,-2.88 c 0,1.76 -1.2,3.04 -2.96,3.04 -1.76,0 -2.96,-1.28 -2.96,-3.04 0,-1.76 1.2,-3.04 2.96,-3.04 1.76,-0.08 2.96,1.28 2.96,3.04 z m -1.12,0 c 0,-1.36 -0.8,-2.08 -1.76,-2.08 -0.96,0 -1.76,0.72 -1.76,2.08 0,1.36 0.8,2.08 1.76,2.08 0.96,0 1.76,-0.8 1.76,-2.08 z m 4.64,-2.88 h 1.28 v 1.04 h -1.28 v 2.96 c 0,0.56 0.24,0.8 0.8,0.8 0.16,0 0.32,0 0.48,-0.08 v 0.96 c -0.08,0 -0.4,0.08 -0.8,0.08 -0.96,0 -1.6,-0.64 -1.6,-1.68 v -3.2 h -1.12 v -0.88 h 0.32 c 0.64,0 0.88,-0.4 0.88,-0.88 V 18.8 h 1.04 z m 6.24,-2.88 v 1.04 c -0.08,0 -0.24,-0.08 -0.48,-0.08 -0.4,0 -0.88,0.16 -0.88,0.96 v 0.96 h 3.84 v 5.76 h -1.12 v -4.72 h -2.72 v 4.72 h -1.2 v -4.72 h -1.04 v -1.04 h 1.04 v -0.96 c 0,-1.28 0.88,-2 1.92,-2 0.32,0 0.56,0.08 0.64,0.08 z m 1.84,-0.16 c 0.48,0 0.8,0.32 0.8,0.8 0,0.48 -0.4,0.8 -0.8,0.8 -0.48,0 -0.8,-0.4 -0.8,-0.8 0,-0.48 0.4,-0.8 0.8,-0.8 z m 4.4,5.84 -2.08,-2.8 h 1.36 l 1.44,2 1.36,-2 h 1.36 l -2.08,2.8 c 0.32,0.48 1.76,2.48 2.16,2.96 h -1.36 l -1.52,-2.16 -1.44,2.16 h -1.36 z"
   id="path106"
   inkscape:connector-curvature="0"
   style="fill:#404040;stroke-width:0.80000001" />
<path
   class="st21"
   d="m 442.71996,1.6 h 76.96 v 40.000002 h -76.96 z"
   id="path108"
   inkscape:connector-curvature="0"
   style="fill:#4ed1a1;stroke:#404040;stroke-width:3.20000005;stroke-linecap:round;stroke-linejoin:round;stroke-miterlimit:10" />
<path
   class="st11"
   d="m 460.71996,26 v -8.48 h 5.2 v 1.12 h -4 v 2.72 h 3.6 v 1.12 h -3.6 v 3.6 z m 11.76,-1.68 c -0.32,1.04 -1.28,1.84 -2.56,1.84 -1.52,0 -2.88,-1.12 -2.88,-3.12 0,-1.84 1.28,-3.04 2.8,-3.04 1.76,0 2.8,1.2 2.8,3.04 v 0.4 h -4.32 c 0,1.04 0.8,1.76 1.76,1.76 0.96,0 1.44,-0.48 1.6,-1.2 z m -1.2,-1.84 c 0,-0.8 -0.56,-1.44 -1.6,-1.44 -0.96,0 -1.52,0.72 -1.6,1.44 z m 4.64,0.24 1.6,-0.24 c 0.32,-0.08 0.48,-0.24 0.48,-0.4 0,-0.56 -0.4,-1.04 -1.28,-1.04 -0.8,0 -1.2,0.48 -1.28,1.2 l -1.04,-0.24 c 0.16,-1.12 1.12,-1.84 2.4,-1.84 1.76,0 2.4,0.96 2.4,2.08 v 2.88 c 0,0.48 0.08,0.8 0.08,0.96 h -1.12 c 0,-0.16 -0.08,-0.4 -0.08,-0.8 -0.24,0.4 -0.8,0.96 -1.84,0.96 -1.2,0 -1.92,-0.8 -1.92,-1.76 -0.16,-1.04 0.56,-1.68 1.6,-1.76 z m 2,0.8 v -0.24 l -1.76,0.24 c -0.48,0.08 -0.8,0.32 -0.8,0.88 0,0.4 0.4,0.8 0.96,0.8 0.88,0 1.6,-0.4 1.6,-1.68 z m 4.96,-3.28 h 1.28 v 1.04 h -1.28 v 3.04 c 0,0.56 0.24,0.8 0.8,0.8 0.16,0 0.32,0 0.48,-0.08 V 26 c -0.08,0 -0.4,0.08 -0.8,0.08 -0.96,0 -1.6,-0.64 -1.6,-1.68 v -3.2 h -1.12 v -1.04 h 0.32 c 0.64,0 0.88,-0.4 0.88,-0.88 v -0.96 h 1.04 z m 5.44,5.92 c -1.36,0 -2.16,-1.04 -2.16,-2.32 v -3.6 h 1.12 v 3.44 c 0,0.8 0.4,1.52 1.28,1.52 0.88,0 1.36,-0.64 1.36,-1.44 v -3.44 h 1.12 v 4.72 c 0,0.48 0,0.88 0.08,1.04 h -1.04 c 0,-0.16 -0.08,-0.48 -0.08,-0.72 -0.24,0.56 -0.96,0.8 -1.68,0.8 z m 8.56,-4.8 h -0.48 c -0.96,0 -1.6,0.48 -1.6,1.76 V 26 h -1.12 v -5.76 h 1.12 v 1.04 c 0.4,-0.88 1.12,-1.12 1.76,-1.12 h 0.4 v 1.2 z m 6.72,2.96 c -0.32,1.04 -1.28,1.84 -2.56,1.84 -1.52,0 -2.88,-1.12 -2.88,-3.12 0,-1.84 1.28,-3.04 2.8,-3.04 1.76,0 2.8,1.2 2.8,3.04 v 0.4 h -4.32 c 0,1.04 0.8,1.76 1.76,1.76 0.96,0 1.44,-0.48 1.6,-1.2 z m -1.12,-1.84 c 0,-0.8 -0.56,-1.44 -1.6,-1.44 -0.96,0 -1.52,0.72 -1.6,1.44 z"
   id="path110"
   inkscape:connector-curvature="0"
   style="fill:#404040;stroke-width:0.80000001" />
<path
   class="st21"
   d="m 552.87996,1.6 h 76.96 v 40.000002 h -76.96 z"
   id="path112"
   inkscape:connector-curvature="0"
   style="fill:#4ed1a1;stroke:#404040;stroke-width:3.20000005;stroke-linecap:round;stroke-linejoin:round;stroke-miterlimit:10" />
<path
   class="st11"
   d="m 570.95996,26 v -8.48 h 5.2 v 1.12 h -4 v 2.72 h 3.6 v 1.12 h -3.6 v 3.6 z m 11.68,-1.68 c -0.32,1.04 -1.28,1.84 -2.56,1.84 -1.52,0 -2.88,-1.12 -2.88,-3.12 0,-1.84 1.28,-3.04 2.72,-3.04 1.76,0 2.8,1.2 2.8,3.04 v 0.4 h -4.32 c 0,1.04 0.8,1.76 1.76,1.76 0.96,0 1.44,-0.48 1.6,-1.2 z m -1.12,-1.84 c 0,-0.8 -0.56,-1.44 -1.6,-1.44 -0.96,0 -1.52,0.72 -1.6,1.44 z m 4.64,0.24 1.52,-0.24 c 0.32,-0.08 0.48,-0.24 0.48,-0.4 0,-0.56 -0.4,-1.04 -1.28,-1.04 -0.8,0 -1.2,0.48 -1.28,1.2 l -1.12,-0.24 c 0.16,-1.12 1.12,-1.84 2.4,-1.84 1.76,0 2.4,0.96 2.4,2.08 v 2.88 c 0,0.48 0.08,0.8 0.08,0.96 h -1.12 c 0,-0.16 -0.08,-0.4 -0.08,-0.8 -0.24,0.4 -0.8,0.96 -1.84,0.96 -1.2,0 -1.92,-0.8 -1.92,-1.76 0,-1.04 0.72,-1.68 1.76,-1.76 z m 2,0.8 v -0.24 l -1.76,0.24 c -0.48,0.08 -0.8,0.32 -0.8,0.88 0,0.4 0.32,0.8 0.96,0.8 0.8,0 1.6,-0.4 1.6,-1.68 z m 4.96,-3.28 h 1.28 v 1.04 h -1.28 v 3.04 c 0,0.56 0.24,0.8 0.8,0.8 0.16,0 0.32,0 0.48,-0.08 V 26 c -0.08,0 -0.4,0.08 -0.8,0.08 -0.96,0 -1.6,-0.64 -1.6,-1.68 v -3.2 h -1.12 v -1.04 h 0.32 c 0.64,0 0.88,-0.4 0.88,-0.88 v -0.96 h 1.04 z m 5.44,5.92 c -1.36,0 -2.16,-1.04 -2.16,-2.32 v -3.6 h 1.12 v 3.44 c 0,0.8 0.4,1.52 1.28,1.52 0.88,0 1.36,-0.64 1.36,-1.44 v -3.44 h 1.12 v 4.72 c 0,0.48 0,0.88 0.08,1.04 h -1.04 c 0,-0.16 -0.08,-0.48 -0.08,-0.72 -0.24,0.56 -0.96,0.8 -1.68,0.8 z m 8.48,-4.8 h -0.48 c -0.96,0 -1.6,0.48 -1.6,1.76 V 26 h -1.12 v -5.76 h 1.12 v 1.04 c 0.4,-0.88 1.12,-1.12 1.76,-1.12 h 0.4 v 1.2 z m 6.8,2.96 c -0.32,1.04 -1.28,1.84 -2.56,1.84 -1.52,0 -2.88,-1.12 -2.88,-3.12 0,-1.84 1.28,-3.04 2.8,-3.04 1.76,0 2.8,1.2 2.8,3.04 v 0.4 h -4.32 c 0,1.04 0.8,1.76 1.76,1.76 0.96,0 1.44,-0.48 1.6,-1.2 z m -1.12,-1.84 c 0,-0.8 -0.56,-1.44 -1.6,-1.44 -0.96,0 -1.52,0.72 -1.6,1.44 z"
   id="path114"
   inkscape:connector-curvature="0"
   style="fill:#404040;stroke-width:0.80000001" />
<path
   class="st0"
   d="m 63.359958,217.44 v 98.72 c 0,13.6 11.04,24.64 24.64,24.64 h 76.560002"
   id="path116"
   inkscape:connector-curvature="0"
   style="fill:none;stroke:#404040;stroke-width:3.20000005;stroke-miterlimit:10" />
<circle
   class="st2"
   cx="151.91997"
   cy="340.72"
   r="12.559999"
   id="circle118"
   style="fill:#b18be8;stroke:#404040;stroke-width:3.20000005;stroke-miterlimit:10" />
<circle
   class="st2"
   cx="114.39996"
   cy="340.72"
   r="12.64"
   id="circle120"
   style="fill:#b18be8;stroke:#404040;stroke-width:3.20000005;stroke-miterlimit:10" />
<circle
   class="st20"
   cx="114.39996"
   cy="242.32001"
   r="12.64"
   id="circle122"
   style="fill:#fc8363;stroke:#404040;stroke-width:3.20000005;stroke-linecap:round;stroke-linejoin:round;stroke-miterlimit:10" />
<path
   class="st0"
   d="m 424.63996,316.16 c 0,13.6 -11.04,24.64 -24.64,24.64 m 160.8,-24.64 c 0,13.6 11.04,24.64 24.64,24.64 h 18.4 m -153.92,-49.28 h -0.72 c -13.6,0 -24.64,11.04 -24.64,24.64 m 136.24,0 c 0,-13.6 -11.04,-24.64 -24.64,-24.64 h -86.24"
   id="path124"
   inkscape:connector-curvature="0"
   style="fill:none;stroke:#404040;stroke-width:3.20000005;stroke-miterlimit:10" />
<circle
   class="st22"
   cx="511.43997"
   cy="291.52002"
   r="12.64"
   id="circle126"
   style="fill:#4cd3d6;stroke:#404040;stroke-width:3.20000005;stroke-linejoin:round;stroke-miterlimit:10" />
<circle
   class="st22"
   cx="473.99997"
   cy="291.52002"
   r="12.64"
   id="circle128"
   style="fill:#4cd3d6;stroke:#404040;stroke-width:3.20000005;stroke-linejoin:round;stroke-miterlimit:10" />
<path
   class="st0"
   d="m 114.39996,353.36 v 73.2 m 12.64,-184.56 h 37.76 m 346.64,36.96 v -73.2"
   id="path130"
   inkscape:connector-curvature="0"
   style="fill:none;stroke:#404040;stroke-width:3.20000005;stroke-miterlimit:10" />
<g
   id="g144"
   transform="matrix(0.8,0,0,0.8,-4.5600379,-2.56)">
	<path
   class="st10"
   d="m 8,5.2 h 96.2 v 50 H 8 Z"
   id="path132"
   inkscape:connector-curvature="0"
   style="fill:#b3e3ff;stroke:#404040;stroke-width:4;stroke-linecap:round;stroke-linejoin:round;stroke-miterlimit:10" />
	<g
   id="g142">
		<path
   class="st23"
   d="m 40.9,36.3 v -10 h 2 l 2.4,7.1 c 0.2,0.7 0.4,1.2 0.5,1.5 0.1,-0.4 0.3,-0.9 0.5,-1.6 l 2.4,-7 h 1.8 v 10 h -1.3 v -8.4 l -2.9,8.4 h -1.2 l -2.9,-8.5 v 8.5 z"
   id="path134"
   inkscape:connector-curvature="0"
   style="fill:#414141" />
		<path
   class="st23"
   d="m 57.9,35.4 c -0.5,0.4 -0.9,0.7 -1.3,0.8 -0.4,0.2 -0.9,0.2 -1.4,0.2 -0.8,0 -1.4,-0.2 -1.8,-0.6 -0.4,-0.4 -0.6,-0.9 -0.6,-1.5 0,-0.4 0.1,-0.7 0.2,-1 0.2,-0.3 0.4,-0.5 0.6,-0.7 0.3,-0.2 0.6,-0.3 0.9,-0.4 0.2,-0.1 0.6,-0.1 1.1,-0.2 1,-0.1 1.7,-0.3 2.2,-0.4 0,-0.2 0,-0.3 0,-0.3 0,-0.5 -0.1,-0.9 -0.3,-1.1 -0.3,-0.3 -0.8,-0.4 -1.4,-0.4 -0.6,0 -1,0.1 -1.3,0.3 -0.3,0.2 -0.5,0.6 -0.6,1.1 L 53,31 c 0.1,-0.5 0.3,-0.9 0.5,-1.2 0.3,-0.3 0.6,-0.6 1.1,-0.7 0.5,-0.2 1,-0.3 1.6,-0.3 0.6,0 1.1,0.1 1.5,0.2 0.4,0.1 0.7,0.3 0.9,0.6 0.2,0.2 0.3,0.5 0.4,0.8 0,0.2 0.1,0.6 0.1,1.1 v 1.6 c 0,1.1 0,1.9 0.1,2.2 0.1,0.3 0.2,0.6 0.3,0.9 H 58.2 C 58,36.1 57.9,35.8 57.9,35.4 Z m -0.1,-2.7 c -0.4,0.2 -1.1,0.3 -2,0.5 -0.5,0.1 -0.9,0.2 -1.1,0.2 -0.2,0 -0.4,0.2 -0.5,0.4 -0.1,0.2 -0.2,0.4 -0.2,0.6 0,0.3 0.1,0.6 0.4,0.8 0.2,0.2 0.6,0.3 1.1,0.3 0.5,0 0.9,-0.1 1.3,-0.3 0.4,-0.2 0.6,-0.5 0.8,-0.9 0.1,-0.3 0.2,-0.7 0.2,-1.2 z"
   id="path136"
   inkscape:connector-curvature="0"
   style="fill:#414141" />
		<path
   class="st23"
   d="m 61.6,27.7 v -1.4 h 1.2 v 1.4 z m 0,8.6 V 29 h 1.2 v 7.3 z"
   id="path138"
   inkscape:connector-curvature="0"
   style="fill:#414141" />
		<path
   class="st23"
   d="M 65.4,36.3 V 29 h 1.1 v 1 c 0.5,-0.8 1.3,-1.2 2.3,-1.2 0.4,0 0.8,0.1 1.2,0.2 0.4,0.2 0.6,0.4 0.8,0.6 0.2,0.2 0.3,0.6 0.4,0.9 0,0.2 0.1,0.6 0.1,1.2 v 4.5 h -1.2 v -4.4 c 0,-0.5 0,-0.9 -0.1,-1.1 -0.1,-0.2 -0.3,-0.4 -0.5,-0.6 -0.2,-0.1 -0.5,-0.2 -0.9,-0.2 -0.5,0 -1,0.2 -1.4,0.5 -0.4,0.3 -0.6,1 -0.6,1.9 v 4 z"
   id="path140"
   inkscape:connector-curvature="0"
   style="fill:#414141" />
	</g>
</g>
</svg>