<?xml version="1.0" encoding="UTF-8" standalone="no"?>
<!-- Generator: Adobe Illustrator 25.3.1, SVG Export Plug-In . SVG Version: 6.00 Build 0)  -->

<svg
   xmlns:dc="http://purl.org/dc/elements/1.1/"
   xmlns:cc="http://creativecommons.org/ns#"
   xmlns:rdf="http://www.w3.org/1999/02/22-rdf-syntax-ns#"
   xmlns:svg="http://www.w3.org/2000/svg"
   xmlns="http://www.w3.org/2000/svg"
   xmlns:sodipodi="http://sodipodi.sourceforge.net/DTD/sodipodi-0.dtd"
   xmlns:inkscape="http://www.inkscape.org/namespaces/inkscape"
   version="1.1"
   id="Layer_1"
   x="0px"
   y="0px"
   viewBox="0 0 262 224.94999"
   xml:space="preserve"
   sodipodi:docname="Harrison-AI_Logo-Stack_White_RGB.svg"
   width="262"
   height="224.95"
   inkscape:version="0.92.5 (2060ec1f9f, 2020-04-08)"><metadata
   id="metadata11"><rdf:RDF><cc:Work
       rdf:about=""><dc:format>image/svg+xml</dc:format><dc:type
         rdf:resource="http://purl.org/dc/dcmitype/StillImage" /></cc:Work></rdf:RDF></metadata><defs
   id="defs9" /><sodipodi:namedview
   pagecolor="#ffffff"
   bordercolor="#666666"
   borderopacity="1"
   objecttolerance="10"
   gridtolerance="10"
   guidetolerance="10"
   inkscape:pageopacity="0"
   inkscape:pageshadow="2"
   inkscape:window-width="1920"
   inkscape:window-height="1016"
   id="namedview7"
   showgrid="false"
   inkscape:zoom="0.69905212"
   inkscape:cx="131"
   inkscape:cy="112.5"
   inkscape:window-x="0"
   inkscape:window-y="27"
   inkscape:window-maximized="1"
   inkscape:current-layer="Layer_1" />
<style
   type="text/css"
   id="style2">
	.st0{fill:#FFFFFF;}
</style>
<path
   class="st0"
   d="m 111,182.05 c 0.7,0.7 1.1,1.5 1.1,2.4 0,0.9 -0.4,1.8 -1.1,2.4 -0.7,0.7 -1.6,1 -2.6,1 -1,0 -1.8,-0.3 -2.5,-1 -0.7,-0.7 -1.1,-1.5 -1.1,-2.4 0,-0.9 0.4,-1.8 1.1,-2.4 0.7,-0.7 1.6,-1 2.5,-1 1,0 1.9,0.3 2.6,1 z m -1.4,10.1 h -2.4 c -0.8,0 -1.4,0.6 -1.4,1.4 v 29.4 c 0,0.8 0.6,1.4 1.4,1.4 h 2.4 c 0.8,0 1.4,-0.6 1.4,-1.4 v -29.4 c 0,-0.7 -0.6,-1.4 -1.4,-1.4 z m 91.6,0.8 c -1.6,-0.9 -3.6,-1.3 -5.7,-1.3 -2.6,0 -4.9,0.5 -6.4,1.5 -1.5,1 -2.5,2.3 -3.1,3.2 v -2.7 c 0,-0.8 -0.6,-1.4 -1.4,-1.4 h -2.4 c -0.8,0 -1.4,0.6 -1.4,1.4 v 29.4 c 0,0.8 0.6,1.4 1.4,1.4 h 2.4 c 0.8,0 1.4,-0.6 1.4,-1.4 v -18 c 0,-1.9 0.4,-3.6 1,-4.8 0.7,-1.3 1.6,-2.3 2.8,-2.9 1.2,-0.7 2.6,-1 4.1,-1 2.2,0 4,0.7 5.3,2.1 1.3,1.4 1.9,3.3 1.9,5.8 v 18.9 c 0,0.8 0.6,1.4 1.4,1.4 h 2.4 c 0.8,0 1.4,-0.6 1.4,-1.4 v -19.1 c 0,-2.7 -0.5,-5 -1.4,-6.8 -0.8,-2 -2.1,-3.4 -3.7,-4.3 z m 57.1,-5 c 1,0 1.8,-0.3 2.6,-1 0.7,-0.7 1.1,-1.5 1.1,-2.4 0,-0.9 -0.4,-1.8 -1.1,-2.4 -0.7,-0.7 -1.6,-1 -2.6,-1 -1,0 -1.8,0.3 -2.5,1 -0.7,0.7 -1.1,1.5 -1.1,2.4 0,0.9 0.4,1.8 1.1,2.4 0.7,0.7 1.6,1 2.5,1 z m -14.3,5.6 c -1.3,-0.8 -2.6,-1.3 -3.9,-1.5 -1.3,-0.2 -2.5,-0.4 -3.6,-0.4 -1.6,0 -3.3,0.2 -4.9,0.7 -1.7,0.4 -3.2,1.2 -4.6,2.3 -0.8,0.6 -2.2,1.9 -3.1,4.1 -0.2,0.5 -0.2,1.1 0.1,1.5 0.2,0.3 0.5,0.4 0.8,0.4 h 2.6 c 0.6,0 1.2,0 1.6,-0.6 0.5,-0.8 1.2,-1.5 2.3,-2.3 1.3,-1 3.1,-1.5 5.4,-1.5 2.2,0 3.9,0.6 5,1.7 1.1,1.1 1.6,2.7 1.6,4.7 v 9.3 c 0,5.2 -3,6.9 -4,7.5 -1.3,0.7 -2.9,1.1 -4.9,1.1 -1.7,0 -3.4,-0.1 -4.8,-1 -1.4,-1 -2.1,-2.8 -1.8,-4.6 0.4,-2.3 2.7,-3.3 3.6,-3.7 2.3,-0.8 4.6,-1.3 7.3,-1.4 0.7,0 1.3,-0.6 1.3,-1.4 v -1.8 c 0,-0.8 -0.6,-1.4 -1.5,-1.4 v 0 c -3.3,0.1 -8,0.7 -11.8,2.9 -2.1,1.2 -3.5,3.1 -4,5.4 -0.5,2.3 -0.1,4.8 1.3,6.8 1,1.5 2.3,2.6 4,3.4 1.7,0.8 3.5,1.2 5.7,1.2 6.5,0 8.6,-3.3 9.4,-4.7 v 2.7 c 0,0.8 0.6,1.4 1.4,1.4 h 2.4 c 0.8,0 1.4,-0.6 1.4,-1.4 v -19.9 c 0,-2.5 -0.4,-4.5 -1.3,-6.1 -0.7,-1.5 -1.8,-2.6 -3,-3.4 z m 15.5,-1.3 h -2.4 c -0.8,0 -1.4,0.6 -1.4,1.4 v 29.4 c 0,0.8 0.6,1.4 1.4,1.4 h 2.4 c 0.8,0 1.4,-0.6 1.4,-1.4 v -29.4 c 0,-0.8 -0.6,-1.4 -1.4,-1.4 z m -44.9,25.8 c -1,0 -1.8,0.3 -2.5,1 -0.7,0.7 -1.1,1.5 -1.1,2.4 0,0.9 0.4,1.8 1.1,2.4 0.7,0.7 1.6,1 2.5,1 1,0 1.8,-0.3 2.6,-1 0.7,-0.7 1.1,-1.5 1.1,-2.4 0,-0.9 -0.4,-1.8 -1.1,-2.4 -0.8,-0.7 -1.7,-1 -2.6,-1 z m -81.1,-11.6 -4.7,-1.2 c -1.9,-0.5 -3.2,-1.1 -4.1,-1.7 -0.9,-0.7 -1.3,-1.6 -1.3,-2.8 0,-1.3 0.6,-2.4 1.9,-3.3 1.3,-0.9 2.8,-1.3 4.8,-1.3 1.4,0 2.7,0.2 3.5,0.6 1.9,0.9 2.6,2.3 2.8,2.8 0.5,0.9 1.3,1.1 1.8,1.1 h 2 c 0.6,0 0.9,-0.2 1,-0.4 0.3,-0.4 0.3,-1 0.1,-1.4 -0.5,-1.5 -1.8,-3.6 -3.8,-5.1 -1.8,-1.4 -4.5,-2.1 -7.4,-2.1 -2.3,0 -4.3,0.4 -6.1,1.2 -1.8,0.8 -3.2,1.9 -4.2,3.3 -1,1.4 -1.6,3 -1.6,4.9 0,2.2 0.7,4.1 2.1,5.6 1.4,1.5 3.6,2.6 6.5,3.3 l 5.3,1.2 c 1.6,0.4 2.8,0.9 3.5,1.7 0.7,0.7 1.1,1.6 1.1,2.7 0,1.3 -0.7,2.5 -2,3.4 -1.3,1 -3.1,1.4 -5.4,1.4 -2,0 -3.6,-0.4 -4.8,-1.3 -0.9,-0.7 -1.7,-1.6 -2.1,-2.7 -0.2,-0.6 -0.7,-0.9 -1.6,-0.9 h -2.6 c -0.3,0.1 -0.6,0.3 -0.8,0.6 -0.2,0.3 -0.2,0.7 -0.1,1 0.6,2.3 2.1,4.4 4,5.7 2.2,1.4 4.9,2.1 8.2,2.1 2.5,0 4.7,-0.4 6.6,-1.3 1.9,-0.8 3.4,-2 4.4,-3.5 1.1,-1.5 1.6,-3.1 1.6,-5 0,-2.3 -0.7,-4.1 -2.1,-5.6 -1.4,-1.2 -3.6,-2.3 -6.5,-3 z m -33.7,-14.8 h -0.3 c -2.6,0 -4.9,0.5 -6.4,1.5 -1.5,1 -2.5,2.3 -3.1,3.2 v -2.7 c 0,-0.8 -0.6,-1.4 -1.4,-1.4 h -2.4 c -0.8,0 -1.4,0.6 -1.4,1.4 v 29.4 c 0,0.8 0.6,1.4 1.4,1.4 h 2.4 c 0.8,0 1.4,-0.6 1.4,-1.4 v -18 c 0,-1.9 0.4,-3.6 1,-4.8 0.7,-1.3 1.6,-2.3 2.8,-2.9 1.2,-0.7 2.6,-1 4.1,-1 h 1.7 c 0.7,0 1.2,-0.6 1.2,-1.2 v -2.1 c 0.3,-0.8 -0.3,-1.4 -1,-1.4 z m -79.4,1.3 c -1.6,-0.9 -3.6,-1.3 -5.7,-1.3 -2.6,0 -4.9,0.5 -6.4,1.5 -1.5,1 -2.5,2.3 -3.1,3.2 v -13.4 c 0,-0.8 -0.6,-1.4 -1.4,-1.4 H 1.4 c -0.8,0 -1.4,0.6 -1.4,1.4 v 40 c 0,0.8 0.6,1.4 1.4,1.4 h 2.4 c 0.8,0 1.4,-0.6 1.4,-1.4 v -18 c 0,-1.9 0.4,-3.6 1,-4.8 0.7,-1.3 1.6,-2.3 2.8,-2.9 1.2,-0.7 2.6,-1 4.1,-1 2.2,0 4,0.7 5.3,2.1 1.3,1.4 1.9,3.3 1.9,5.8 v 18.9 c 0,0.8 0.6,1.4 1.4,1.4 h 2.4 c 0.8,0 1.4,-0.6 1.4,-1.4 v -19.1 c 0,-2.7 -0.5,-5 -1.4,-6.8 -0.8,-1.9 -2.1,-3.3 -3.7,-4.2 z m 58.5,-1.3 h -0.3 c -2.6,0 -4.9,0.5 -6.4,1.5 -1.5,1 -2.5,2.3 -3.1,3.2 v -2.7 c 0,-0.8 -0.6,-1.4 -1.4,-1.4 h -2.4 c -0.8,0 -1.4,0.6 -1.4,1.4 v 29.4 c 0,0.8 0.6,1.4 1.4,1.4 h 2.4 c 0.8,0 1.4,-0.6 1.4,-1.4 v -18 c 0,-1.9 0.4,-3.6 1,-4.8 0.7,-1.3 1.6,-2.3 2.8,-2.9 1.2,-0.7 2.6,-1 4.1,-1 h 1.7 c 0.7,0 1.2,-0.6 1.2,-1.2 v -2.1 c 0.3,-0.8 -0.3,-1.4 -1,-1.4 z m -26.7,1.9 c -1.3,-0.8 -2.6,-1.3 -3.9,-1.5 -1.3,-0.2 -2.5,-0.4 -3.6,-0.4 -1.6,0 -3.3,0.2 -4.9,0.7 -1.7,0.4 -3.2,1.2 -4.6,2.3 -0.8,0.6 -2.2,1.9 -3.1,4.1 -0.2,0.5 -0.2,1.1 0.1,1.5 0.2,0.3 0.5,0.4 0.8,0.4 h 2.6 c 0.6,0 1.2,0 1.6,-0.6 0.5,-0.8 1.2,-1.5 2.3,-2.3 1.3,-1 3.1,-1.5 5.4,-1.5 2.2,0 3.9,0.6 5,1.7 1.1,1.1 1.6,2.7 1.6,4.7 v 9.3 c 0,5.2 -3,6.9 -4,7.5 -1.3,0.7 -2.9,1.1 -4.9,1.1 -1.7,0 -3.4,-0.1 -4.8,-1 -1.4,-1 -2.1,-2.8 -1.8,-4.6 0.4,-2.3 2.7,-3.3 3.6,-3.7 2.3,-0.8 4.6,-1.3 7.3,-1.4 0.7,0 1.3,-0.6 1.3,-1.4 v -1.8 c 0,-0.8 -0.6,-1.4 -1.5,-1.4 v 0 c -3.3,0.1 -8,0.7 -11.7,2.9 -2.1,1.2 -3.5,3.1 -4,5.4 -0.5,2.3 -0.1,4.8 1.3,6.8 1,1.5 2.3,2.6 4,3.4 1.7,0.8 3.5,1.2 5.7,1.2 6.5,0 8.6,-3.3 9.4,-4.7 v 2.7 c 0,0.8 0.6,1.4 1.4,1.4 h 2.4 c 0.8,0 1.4,-0.6 1.4,-1.4 v -19.9 c 0,-2.5 -0.4,-4.5 -1.3,-6.1 -0.8,-1.5 -1.8,-2.7 -3.1,-3.4 z m 121.8,6 c 1.2,2.5 1.8,5.4 1.8,8.7 0,3.3 -0.6,6.2 -1.8,8.7 -1.2,2.5 -2.9,4.4 -5.1,5.8 -2.2,1.4 -4.7,2.1 -7.6,2.1 -2.9,0 -5.4,-0.7 -7.6,-2.1 -2.2,-1.4 -3.9,-3.3 -5.1,-5.8 -1.2,-2.5 -1.8,-5.4 -1.8,-8.7 0,-3.3 0.6,-6.2 1.8,-8.7 1.2,-2.5 2.9,-4.4 5.1,-5.8 2.2,-1.4 4.7,-2.1 7.6,-2.1 2.9,0 5.4,0.7 7.6,2.1 2.2,1.4 3.9,3.3 5.1,5.8 z m -3.1,8.7 c 0,-2.1 -0.3,-4.1 -1,-5.9 -0.7,-1.8 -1.7,-3.3 -3.2,-4.5 -1.4,-1.1 -3.2,-1.7 -5.4,-1.7 -2.2,0 -4,0.6 -5.4,1.7 -1.4,1.1 -2.5,2.6 -3.2,4.5 -0.7,1.8 -1,3.8 -1,5.9 0,2.1 0.3,4.1 1,5.9 0.7,1.8 1.7,3.3 3.2,4.5 1.4,1.1 3.2,1.7 5.4,1.7 2.2,0 4,-0.6 5.4,-1.7 1.4,-1.1 2.5,-2.6 3.2,-4.5 0.7,-1.8 1,-3.8 1,-5.9 z m 38.8,-148.2 c 0,0 0,-0.1 0,-0.1 0,-0.1 -0.1,-0.2 -0.1,-0.3 0,0 0,-0.1 -0.1,-0.1 0,-0.1 -0.1,-0.2 -0.2,-0.2 0,0 -0.1,-0.1 -0.1,-0.1 -0.1,-0.1 -0.1,-0.1 -0.2,-0.2 0,0 0,-0.1 -0.1,-0.1 l -26,-19.5 c -0.7,-0.6 -1.8,-0.6 -2.5,0 l -22.6,17 v -34.9 c 0,-0.2 0,-0.3 -0.1,-0.5 0,0 0,-0.1 0,-0.1 0,-0.1 -0.1,-0.2 -0.1,-0.3 0,0 0,-0.1 -0.1,-0.1 0,-0.1 -0.1,-0.2 -0.2,-0.2 0,0 -0.1,-0.1 -0.1,-0.1 -0.1,-0.1 -0.1,-0.1 -0.2,-0.2 0,0 0,-0.1 -0.1,-0.1 l -26,-19.5 c -0.7,-0.6 -1.8,-0.6 -2.5,0 l -78,58.5 c 0,0 0,0 -0.1,0.1 -0.1,0.1 -0.2,0.1 -0.2,0.2 0,0 -0.1,0.1 -0.1,0.1 -0.1,0.1 -0.1,0.2 -0.2,0.2 0,0 -0.1,0.1 -0.1,0.1 0,0.1 -0.1,0.2 -0.1,0.3 0,0 0,0.1 0,0.1 0,0.1 -0.1,0.3 -0.1,0.5 v 39 c 0,0.7 0.3,1.3 0.8,1.7 l 26,19.5 c 0,0 0,0 0,0 0.2,0.1 0.3,0.2 0.5,0.3 0,0 0.1,0 0.1,0 0.2,0.1 0.4,0.1 0.6,0.1 0.2,0 0.4,0 0.6,-0.1 0,0 0.1,0 0.1,0 0.2,-0.1 0.4,-0.2 0.5,-0.3 0,0 0,0 0,0 l 22.6,-17 v 34.8 c 0,0 0,0.1 0,0.1 0,0.1 0,0.2 0,0.2 0,0.1 0,0.1 0,0.2 0,0.1 0,0.1 0.1,0.2 0,0.1 0.1,0.1 0.1,0.2 0,0.1 0.1,0.1 0.1,0.2 0,0.1 0.1,0.1 0.1,0.2 0,0.1 0.1,0.1 0.1,0.2 0.1,0.1 0.1,0.1 0.2,0.2 0,0 0.1,0.1 0.1,0.1 l 26,19.5 c 0,0 0,0 0,0 0.2,0.1 0.3,0.2 0.5,0.3 0,0 0.1,0 0.1,0 0.2,0.1 0.4,0.1 0.6,0.1 0,0 0,0 0,0 0.2,0 0.4,0 0.6,-0.1 0,0 0.1,0 0.1,0 0.2,-0.1 0.4,-0.2 0.5,-0.3 0,0 0,0 0,0 l 24.7,-18.5 24.7,18.5 c 0,0 0,0 0,0 0.2,0.1 0.3,0.2 0.5,0.3 0,0 0.1,0 0.1,0 0.2,0.1 0.4,0.1 0.6,0.1 0.2,0 0.4,0 0.6,-0.1 0,0 0.1,0 0.1,0 0.2,-0.1 0.4,-0.2 0.5,-0.3 0,0 0,0 0,0 l 26,-19.5 c 0.5,-0.4 0.8,-1 0.8,-1.7 v -78 c 0.7,-0.3 0.6,-0.5 0.6,-0.6 z m -4.1,35.2 -20.4,-15.3 20.4,-15.3 z m -72.4,-54.3 20.4,-15.3 v 30.6 z m -3.5,-36.3 22.5,16.9 -23.7,17.8 c -0.5,0.4 -0.8,1 -0.8,1.7 0,0.7 0.3,1.3 0.8,1.7 l 26,19.5 c 0,0 0,0 0,0 0.2,0.1 0.3,0.2 0.5,0.3 0,0 0.1,0 0.1,0 0.2,0.1 0.4,0.1 0.6,0.1 0.2,0 0.4,0 0.6,-0.1 0,0 0.1,0 0.1,0 0.2,-0.1 0.4,-0.2 0.5,-0.3 0,0 0,0 0,0 l 24.7,-18.5 22.5,16.9 -23.7,17.8 c -0.5,0.4 -0.8,1 -0.8,1.7 0,0.7 0.3,1.3 0.8,1.7 l 23.7,17.8 -22.5,16.9 -24.7,-18.5 c 0,0 0,0 0,0 -0.2,-0.1 -0.3,-0.2 -0.5,-0.3 0,0 -0.1,0 -0.1,0 -0.2,-0.1 -0.4,-0.1 -0.6,-0.1 -0.2,0 -0.4,0 -0.6,0.1 0,0 -0.1,0 -0.1,0 -0.2,0.1 -0.4,0.2 -0.5,0.3 0,0 0,0 0,0 l -24.7,18.5 -22.5,-16.9 23.7,-17.8 c 0.5,-0.4 0.8,-1 0.8,-1.7 0,-0.7 -0.3,-1.3 -0.8,-1.7 l -26,-19.5 c 0,0 0,0 0,0 -0.2,-0.1 -0.3,-0.2 -0.5,-0.3 0,0 -0.1,0 -0.1,0 -0.2,-0.1 -0.4,-0.1 -0.6,-0.1 -0.2,0 -0.4,0 -0.6,0.1 0,0 -0.1,0 -0.1,0 -0.2,0.1 -0.4,0.2 -0.5,0.3 0,0 0,0 0,0 L 77.9,77.45 55.4,60.55 Z m -49.9,76.4 21.8,-16.3 v 33.7 l -21.8,16.3 z m 46.4,-1.1 -20.4,15.3 v -30.6 z m -20.4,23.7 21.8,16.3 v 33.7 l -21.8,-16.3 z m 26,16.3 21.8,-16.3 v 33.7 l -21.8,16.4 z m 26,-16.3 21.8,16.3 v 33.7 l -21.8,-16.3 z m -104,-39 21.8,16.3 v 33.7 L 53.8,98.45 Z m 130,89.1 v -33.7 l 21.8,-16.3 v 33.7 z"
   id="path4"
   inkscape:connector-curvature="0"
   style="fill:#ffffff" />
</svg>